/* XPM */
static char *e49c67bdf5fb46e79616576dfb8f3c0eSaxcVebHJR65DDhi[] = {
/* columns rows colors chars-per-pixel */
"30 30 11 1 ",
"  c #696868",
". c #6A6A6A",
"X c gray42",
"o c #6D6D6D",
"O c #D7D7D7",
"+ c gray91",
"@ c #EAEAEA",
"# c gray92",
"$ c #EFEFEF",
"% c #FDFDFD",
"& c white",
/* pixels */
"oo.............. .o..o ...o.oo",
".O$######$#################$O ",
" $&&&&&&&&&&&&&&&&&&&&&&&&&&# ",
" #&&%&%&&&%&&&&&%&%&&&%&&&%&+ ",
" +&%&&&&&&&&&&&&&&&&&&&&&&&&+ ",
".+&&&&&&&&&&&&&&&&&&&&&&&&%&+ ",
" #&%&&&&&&&&&&&&&&&&&&&&&&%&+ ",
" +&&&&&&&&&&&&&&&&&&&&&&&&&&# ",
".+&%&&&&&&&&&&&&&&&&&&&&&&&&+.",
" +&&&&&&&&&&&&&&&&&&&&&&&&%&# ",
" +&&&&&&&&&&&&&&&&&&&&&&&&%&+ ",
" #&&&&&&&&&&&&&&&&&&&&&&&&%%# ",
" +&&&&&&&&&&&&&&&&&&&&&&&&&&+ ",
" +&&&&&&&&&&&&&&&&&&&&&&&&%&# ",
".+&&&&&&&&&&&&&&&&&&&&&&&&&&+.",
" +&%&&&&&&&&&&&&&&&&&&&&&&%&# ",
" +&%&&&&&&&&&&&&&&&&&&&&&&%&+ ",
" #&&&&&&&&&&&&&&&&&&&&&&&&&&+ ",
" +&%&&&&&&&&&&&&&&&&&&&&&&%&+ ",
" #&&&&&&&&&&&&&&&&&&&&&&&&&&# ",
" +&%&&&&&&&&&&&&&&&&&&&&&&%&+ ",
" +&&&&&&&&&&&&&&&&&&&&&&&&&&+ ",
" +&%&&&&&&&&&&&&&&&&&&&&&&&&# ",
" #&&&&&&&&&&&&&&&&&&&&&&&&&&+ ",
" +&&&&&&&&&&&&&&&&&&&&&&&&&&# ",
" #&%&&&&&&&&&&&&&&&&&&&&&&%&+ ",
" +&%&%%&%&&%&&&&&%%&&&&&%&%&+.",
" #&&&&&&&&&&&&&&&&&&&&&&&&&&$.",
".O$########################$O.",
"o....oo...o....o.......o......"
};
