/* XPM */
static char *e356671cbc49498ebfe72af2549f11afHPG2C1R41cFcRE7O[] = {
/* columns rows colors chars-per-pixel */
"30 30 9 1 ",
"  c black",
". c #070707",
"X c #0B0B0B",
"o c gray11",
"O c #222222",
"+ c #272727",
"@ c gray20",
"# c #6A6A6A",
"$ c #6D6D6D",
/* pixels */
"$############################$",
"$@oOOOOoOOOOOoOOOOOoOOOOOoOo@$",
"$O                          O#",
"#+ X.....................XX +$",
"$+ X                      . +#",
"#+ .                      X +$",
"$+ .                      X +#",
"#+ X                      . +#",
"#+ .                      X +$",
"$+ .                      . +#",
"#+ X                      . +#",
"#+ X                      X +#",
"$+ .                      X +#",
"$+ X                      X +$",
"#+ X                      . +#",
"#+ .                      X +$",
"$+ X                      X +#",
"#+ .                      . +$",
"$+ .                      X +#",
"#+ X                      . +#",
"#+ .                      X +$",
"$+ .                      . +$",
"#+ X                      X +#",
"#+ X                      . +#",
"$+ .                      X +#",
"$+ X                      X +#",
"$+ X......................X +$",
"#O                          O$",
"$@oOOOOOOOOoOOOOOOOoOOOOOOOo@#",
"$############################$"
};
